<?xml version="1.0" encoding="utf-8"?>
<!-- Generator: Adobe Illustrator 24.1.1, SVG Export Plug-In . SVG Version: 6.00 Build 0)  -->
<svg version="1.1" id="Layer_1" xmlns="http://www.w3.org/2000/svg" xmlns:xlink="http://www.w3.org/1999/xlink" x="0px" y="0px"
	 viewBox="0 0 512 512" style="enable-background:new 0 0 512 512;" xml:space="preserve">
<g>
	<path d="M435.2,409.6c14.1,0,25.6,11.5,25.6,25.6c0,14.1-11.5,25.6-25.6,25.6H76.8c-14.1,0-25.6-11.5-25.6-25.6
		c0-14.1,11.5-25.6,25.6-25.6H435.2 M435.2,358.4H76.8C34.5,358.4,0,392.9,0,435.2S34.5,512,76.8,512h358.4
		c42.3,0,76.8-34.5,76.8-76.8S477.5,358.4,435.2,358.4z M435.2,230.4c14.1,0,25.6,11.5,25.6,25.6c0,14.1-11.5,25.6-25.6,25.6H76.8
		c-14.1,0-25.6-11.5-25.6-25.6c0-14.1,11.5-25.6,25.6-25.6H435.2 M435.2,179.2H76.8C34.5,179.2,0,213.7,0,256s34.5,76.8,76.8,76.8
		h358.4c42.3,0,76.8-34.5,76.8-76.8S477.5,179.2,435.2,179.2z M435.2,51.2c14.1,0,25.6,11.5,25.6,25.6s-11.5,25.6-25.6,25.6H76.8
		c-14.1,0-25.6-11.5-25.6-25.6s11.5-25.6,25.6-25.6H435.2 M435.2,0H76.8C34.5,0,0,34.5,0,76.8s34.5,76.8,76.8,76.8h358.4
		c42.3,0,76.8-34.5,76.8-76.8S477.5,0,435.2,0z"/>
</g>
</svg>
